<?xml version="1.0" standalone="no"?>
<!DOCTYPE svg PUBLIC "-//W3C//DTD SVG 1.0//EN" "http://www.w3.org/TR/2001/REC-SVG-20010904/DTD/svg10.dtd">
<svg xmlns="http://www.w3.org/2000/svg" xmlns:xlink="http://www.w3.org/1999/xlink" id="body_1" width="192" height="28">

<g transform="matrix(0.5203252 0 0 0.5203252 -0 0.21138212)">
    <path d="M95.1 11.2L103.2 11.2L93 44.4L84 44.4L78.3 22.100002L72.5 44.4L63.5 44.4L53.3 11.2L61.8 11.2L68 36.4L74.1 11.100002L83 11.100002L89 36.300003L95.1 11.2z" stroke="none" fill="#FFFFFF" fill-rule="nonzero" />
    <path d="M108.2 40.1C 105 36.899998 103.299995 32.8 103.299995 27.699999C 103.299995 22.599998 104.899994 18.5 108.2 15.299999C 111.5 12.199999 115.6 10.599999 120.399994 10.599999C 125.19999 10.599999 129.29999 12.2 132.59999 15.299999C 135.9 18.4 137.49998 22.5 137.49998 27.699999C 137.49998 32.8 135.89998 37 132.49998 40.1C 129.19998 43.3 125.09998 44.8 120.19998 44.8C 115.5 44.9 111.5 43.3 108.2 40.1zM120.4 37.7C 122.8 37.7 124.8 36.8 126.5 35.100002C 128.2 33.4 129 30.900002 129 27.700003C 129 24.500004 128.2 22.100002 126.5 20.400002C 124.8 18.7 122.8 17.800001 120.4 17.800001C 118 17.800001 116 18.7 114.4 20.400002C 112.8 22.100002 111.9 24.600002 111.9 27.800001C 111.9 31.000002 112.700005 33.5 114.4 35.2C 116 36.9 118 37.7 120.4 37.7z" stroke="none" fill="#FFFFFF" fill-rule="nonzero" />
    <path d="M143.5 40.1C 140.3 36.899998 138.6 32.8 138.6 27.699999C 138.6 22.599998 140.20001 18.5 143.5 15.299999C 146.8 12.199999 150.9 10.599999 155.7 10.599999C 160.5 10.599999 164.59999 12.2 167.9 15.299999C 171.2 18.4 172.79999 22.5 172.79999 27.699999C 172.79999 32.8 171.19998 37 167.79999 40.1C 164.49998 43.3 160.4 44.8 155.49998 44.8C 150.8 44.9 146.7 43.3 143.5 40.1zM155.7 37.7C 158.09999 37.7 160.09999 36.8 161.8 35.100002C 163.5 33.4 164.3 30.900002 164.3 27.700003C 164.3 24.500004 163.5 22.100002 161.8 20.400002C 160.1 18.7 158.1 17.800001 155.7 17.800001C 153.3 17.800001 151.3 18.7 149.7 20.400002C 148.09999 22.100002 147.2 24.600002 147.2 27.800001C 147.2 31.000002 148 33.5 149.7 35.2C 151.3 36.9 153.3 37.7 155.7 37.7z" stroke="none" fill="#FFFFFF" fill-rule="nonzero" />
    <path d="M179.4 40.1C 176.4 36.899998 174.9 32.8 174.9 27.8C 174.9 22.8 176.4 18.699999 179.29999 15.499999C 182.29999 12.299999 185.99998 10.699999 190.59999 10.699999C 195.2 10.699999 198.59999 12.599998 200.99998 16.3L200.99998 16.3L200.99998 0L209.39998 0L209.39998 44.4L201 44.4L201 38.800003C 198.5 42.800003 195 44.9 190.5 44.9C 186 44.9 182.3 43.3 179.4 40.1zM198.4 34.9C 200.2 33.2 201 30.800001 201 27.7C 201 24.7 200.1 22.300001 198.4 20.5C 196.59999 18.8 194.59999 17.9 192.2 17.9C 189.8 17.9 187.8 18.8 186 20.5C 184.3 22.2 183.4 24.6 183.4 27.6C 183.4 30.6 184.29999 33 186 34.8C 187.8 36.6 189.8 37.399998 192.1 37.399998C 194.6 37.6 196.6 36.7 198.4 34.9z" stroke="none" fill="#FFFFFF" fill-rule="nonzero" />
    <path d="M222.5 11.2L222.5 16.2C 224.6 12.6 228.1 10.700001 232.8 10.700001C 235.3 10.700001 237.6 11.300001 239.6 12.400001C 241.6 13.6 243.1 15.200001 244.20001 17.400002C 245.40001 15.300001 247.00002 13.700002 249.00002 12.500002C 251.00002 11.300002 253.30002 10.700002 255.80002 10.700002C 259.80002 10.700002 263.00003 11.900002 265.40002 14.400002C 267.80002 16.900002 269.00003 20.400002 269.00003 24.800001L269.00003 24.800001L269.00003 44.4L260.60004 44.4L260.60004 26C 260.60004 23.4 259.90002 21.4 258.60004 20C 257.30005 18.6 255.50003 17.9 253.20004 17.9C 250.90004 17.9 249.10004 18.6 247.80005 20C 246.50006 21.4 245.80005 23.4 245.80005 26L245.80005 26L245.80005 44.4L237.40005 44.4L237.40005 26C 237.40005 23.4 236.70006 21.4 235.40005 20C 234.10005 18.6 232.30005 17.9 230.00006 17.9C 227.70006 17.9 225.90005 18.6 224.60007 20C 223.30008 21.4 222.60007 23.4 222.60007 26L222.60007 26L222.60007 44.4L214 44.4L214 11.2L222.5 11.2z" stroke="none" fill="#FFFFFF" fill-rule="nonzero" />
    <path d="M277.4 40.1C 274.4 36.899998 272.9 32.8 272.9 27.8C 272.9 22.8 274.4 18.699999 277.3 15.499999C 280.3 12.299999 284 10.699999 288.59998 10.699999C 293.19998 10.699999 296.59998 12.599998 298.99997 16.3L298.99997 16.3L298.99997 11.099999L307.39996 11.099999L307.39996 44.3L298.99997 44.3L298.99997 38.7C 296.49997 42.7 292.99997 44.8 288.49997 44.8C 284.1 44.9 280.4 43.3 277.4 40.1zM296.4 34.9C 298.19998 33.2 299 30.800001 299 27.7C 299 24.7 298.1 22.300001 296.4 20.5C 294.6 18.8 292.6 17.9 290.19998 17.9C 287.8 17.9 285.8 18.8 283.99997 20.5C 282.29996 22.2 281.39996 24.6 281.39996 27.6C 281.39996 30.6 282.29996 33 283.99997 34.8C 285.79996 36.6 287.79996 37.399998 290.19998 37.399998C 292.6 37.399998 294.7 36.7 296.4 34.9z" stroke="none" fill="#FFFFFF" fill-rule="nonzero" />
    <path d="M321.5 11.2L321.5 17C 323.7 12.8 327 10.6 331.2 10.6L331.2 10.6L331.2 19.2L329.1 19.2C 326.6 19.2 324.7 19.800001 323.4 21.1C 322.1 22.4 321.5 24.5 321.5 27.6L321.5 27.6L321.5 44.300003L313 44.300003L313 11.2L321.5 11.2z" stroke="none" fill="#FFFFFF" fill-rule="nonzero" />
    <path d="M350.7 37.3L354.7 37.3L354.7 44.399998L349.40002 44.399998C 346.00003 44.399998 343.40002 43.6 341.50003 42.1C 339.70004 40.5 338.70004 38 338.70004 34.399998L338.70004 34.399998L338.70004 18.1L335.20004 18.1L335.20004 11.200001L338.70004 11.200001L338.70004 2.9L347.20004 2.9L347.20004 11.1L354.60004 11.1L354.60004 18L347.20004 18L347.20004 34.3C 347.20004 35.399998 347.50003 36.2 348.00003 36.6C 348.6 37.1 349.5 37.3 350.7 37.3z" stroke="none" fill="#FFFFFF" fill-rule="nonzero" />
    <path d="M46.9 28.5C 46.9 34.768433 44.683777 40.118874 40.251328 44.551323C 35.81888 48.983776 30.468435 51.200005 24.2 51.2C 17.93157 51.200005 12.581128 48.983776 8.148676 44.551323C 3.7162254 40.118874 1.5 34.768433 1.5 28.5C 1.5 22.231567 3.7162254 16.881126 8.148676 12.448675C 12.581128 8.016225 17.93157 5.799999 24.2 5.799999C 30.468435 5.799999 35.81888 8.016225 40.251328 12.448675C 44.683777 16.881126 46.9 22.231567 46.9 28.5C 46.9 28.764154 46.895393 29.028229 46.886173 29.29222" stroke="#FFFFFF" stroke-width="3" fill="none" />
    <path d="M10 39.8L23.9 11.1L39 39.8" stroke="none" fill="#FFFFFF" fill-rule="nonzero" />
    <path d="M22.5 39.6L25.4 39.6L25.4 45.899998L22.5 45.899998z" stroke="none" fill="#FFFFFF" fill-rule="nonzero" />
	<g>
        <path d="M368.2 39.6C 368.2 41 367.7 42.1 366.80002 43C 365.90002 43.9 364.7 44.4 363.40002 44.4C 362.10004 44.4 360.90002 43.9 360.00003 43C 359.10004 42.1 358.60004 40.9 358.60004 39.6C 358.60004 38.199997 359.10004 37.1 360.00003 36.199997C 360.90002 35.299995 362.00003 34.799995 363.40002 34.799995C 364.80002 34.799995 365.90002 35.299995 366.80002 36.199997C 367.7 37.1 368.2 38.3 368.2 39.6z" stroke="none" fill="#FFFFFF" fill-rule="nonzero" />
	</g>
</g>
</svg>